<?xml version="1.0" encoding="UTF-8" standalone="no"?>
<!DOCTYPE svg PUBLIC "-//W3C//DTD SVG 1.1//EN" "http://www.w3.org/Graphics/SVG/1.1/DTD/svg11.dtd">
<svg width="100%" height="100%" viewBox="0 0 560 561" version="1.1" xmlns="http://www.w3.org/2000/svg" xmlns:xlink="http://www.w3.org/1999/xlink" xml:space="preserve" xmlns:serif="http://www.serif.com/" style="fill-rule:evenodd;clip-rule:evenodd;stroke-linecap:round;stroke-linejoin:round;stroke-miterlimit:8;">
    <g transform="matrix(0.886129,0,0,0.886129,31.8839,31.8839)">
        <g id="Frame-:-Dark" serif:id="Frame : Dark">
            <path id="Light" d="M524.705,114.488C524.705,99.749 512.739,87.783 498,87.783L62,87.783C47.261,87.783 35.295,99.749 35.295,114.488L35.295,445.512C35.295,460.251 47.261,472.217 62,472.217L498,472.217C512.739,472.217 524.705,460.251 524.705,445.512L524.705,114.488ZM493.302,130.202C493.302,122.85 487.243,116.882 479.78,116.882L80.22,116.882C72.757,116.882 66.698,122.85 66.698,130.202L66.698,429.798C66.698,437.15 72.757,443.118 80.22,443.118L479.78,443.118C487.243,443.118 493.302,437.15 493.302,429.798L493.302,130.202Z" style="fill:rgb(101,101,104);"/>
        </g>
    </g>
    <g transform="matrix(0.715352,0,0,0.794886,116.764,266.083)">
        <g id="Text">
            <text id="Light1" serif:id="Light" x="0px" y="0px" style="font-family:'LucidaGrande', 'Lucida Grande', sans-serif;font-weight:500;font-size:192.196px;fill:rgb(101,101,104);stroke:rgb(101,101,104);stroke-width:19.84px;">&gt;_</text>
        </g>
    </g>
</svg>
